<svg xmlns="http://www.w3.org/2000/svg" width="27.866" height="27.866" viewBox="0 0 27.866 27.866"><defs><style>.a{fill:#1aa8ff;}</style></defs><path class="a" d="M25.221,23.24a3.265,3.265,0,1,0-5.4-.03,5.414,5.414,0,0,0-1.608,1.419,5.414,5.414,0,0,0-1.583-1.4,3.266,3.266,0,1,0-5.4,0,5.412,5.412,0,0,0-1.583,1.4A5.409,5.409,0,0,0,8.12,23.255a3.265,3.265,0,1,0-5.4-.06A5.374,5.374,0,0,0,0,27.866H2.177a3.193,3.193,0,1,1,6.386,0H10.74a3.193,3.193,0,0,1,6.386,0H19.3a3.193,3.193,0,1,1,6.386,0h2.177a5.373,5.373,0,0,0-2.645-4.626ZM5.443,20.3a1.089,1.089,0,1,1-1.089,1.089A1.09,1.09,0,0,1,5.443,20.3Zm8.49,0a1.089,1.089,0,1,1-1.089,1.089A1.09,1.09,0,0,1,13.933,20.3Zm8.6,0a1.089,1.089,0,1,1-1.089,1.089A1.09,1.09,0,0,1,22.532,20.3ZM5.5,6.531A3.266,3.266,0,1,0,2.231,3.266,3.269,3.269,0,0,0,5.5,6.531Zm0-4.354A1.089,1.089,0,1,1,4.408,3.266,1.09,1.09,0,0,1,5.5,2.177Zm-3.32,13.77H0V10.831A3.269,3.269,0,0,1,3.266,7.565H16.817V9.742H8.708v6.2H6.531v-6.2H3.266a1.09,1.09,0,0,0-1.089,1.089ZM27.866,13.77v2.177H10.885V13.77H24.056V3.266a1.09,1.09,0,0,0-1.089-1.089H10.94V0H22.968a3.269,3.269,0,0,1,3.266,3.266v10.5Zm0,0" transform="translate(0 0)"/></svg>